<mxfile host="app.diagrams.net" modified="2023-12-12T12:52:44.480Z" agent="Mozilla/5.0 (X11; Linux x86_64; rv:91.0) Gecko/20100101 Firefox/91.0" version="22.1.7" etag="W5XHJPYQd1OHJ67qzVxT" type="github">
  <diagram name="Page-1" id="VysJXcWZwabhwM3CXEtV">
    <mxGraphModel>
      <root>
        <mxCell id="0" />
        <mxCell id="1" parent="0" />
      </root>
    </mxGraphModel>
  </diagram>
</mxfile>
